<?xml version="1.0" encoding="UTF-8" standalone="no"?>
<!-- Created with Inkscape (http://www.inkscape.org/) -->

<svg
   xmlns:dc="http://purl.org/dc/elements/1.1/"
   xmlns:cc="http://creativecommons.org/ns#"
   xmlns:rdf="http://www.w3.org/1999/02/22-rdf-syntax-ns#"
   xmlns:svg="http://www.w3.org/2000/svg"
   xmlns="http://www.w3.org/2000/svg"
   xmlns:sodipodi="http://sodipodi.sourceforge.net/DTD/sodipodi-0.dtd"
   xmlns:inkscape="http://www.inkscape.org/namespaces/inkscape"
   width="64"
   height="64"
   viewBox="0 0 16.933333 16.933333"
   version="1.1"
   id="svg8"
   inkscape:version="0.92.3 (2405546, 2018-03-11)"
   sodipodi:docname="04-Cloud network.svg">
  <defs
     id="defs2" />
  <sodipodi:namedview
     id="base"
     pagecolor="#ffffff"
     bordercolor="#666666"
     borderopacity="1.0"
     inkscape:pageopacity="0.0"
     inkscape:pageshadow="2"
     inkscape:zoom="7.9999996"
     inkscape:cx="56.286647"
     inkscape:cy="18.724784"
     inkscape:document-units="px"
     inkscape:current-layer="layer2"
     showgrid="false"
     inkscape:snap-smooth-nodes="true"
     inkscape:snap-page="true"
     inkscape:snap-midpoints="false"
     inkscape:snap-intersection-paths="true"
     inkscape:object-paths="true"
     inkscape:object-nodes="true"
     units="px"
     inkscape:snap-bbox="true"
     inkscape:bbox-paths="false"
     inkscape:snap-bbox-midpoints="false"
     inkscape:window-width="1920"
     inkscape:window-height="1040"
     inkscape:window-x="0"
     inkscape:window-y="0"
     inkscape:window-maximized="1"
     inkscape:snap-grids="true"
     inkscape:snap-to-guides="false"
     inkscape:snap-bbox-edge-midpoints="false"
     inkscape:snap-nodes="true"
     inkscape:snap-others="false"
     inkscape:bbox-nodes="true"
     showguides="false"
     inkscape:guide-bbox="true"
     inkscape:measure-start="0,0"
     inkscape:measure-end="0,0"
     inkscape:snap-global="true">
    <inkscape:grid
       type="xygrid"
       id="grid815"
       enabled="true" />
  </sodipodi:namedview>
  <metadata
     id="metadata5">
    <rdf:RDF>
      <cc:Work
         rdf:about="">
        <dc:format>image/svg+xml</dc:format>
        <dc:type
           rdf:resource="http://purl.org/dc/dcmitype/StillImage" />
        <dc:title />
      </cc:Work>
    </rdf:RDF>
  </metadata>
  <g
     inkscape:groupmode="layer"
     id="layer2"
     inkscape:label="04-Cloud network">
    <path
       transform="scale(-1,1)"
       style="opacity:1;fill:#a8c5f7;fill-opacity:1;stroke:none;stroke-width:0.529167;stroke-linecap:round;stroke-linejoin:round;stroke-miterlimit:4;stroke-dasharray:none"
       d="m -10.583332,11.377089 c 0,0.29225 -0.236916,0.529166 -0.529167,0.529166 -0.292251,0 -0.529167,-0.236916 -0.529167,-0.529166 0,-0.292251 0.236916,-0.529167 0.529167,-0.529167 0.292251,0 0.529167,0.236916 0.529167,0.529167 z"
       id="ellipse6763"
       inkscape:connector-curvature="0"
       sodipodi:nodetypes="ccccc" />
    <path
       transform="scale(-1,1)"
       style="opacity:1;fill:#a8c5f7;fill-opacity:1;stroke:none;stroke-width:0.529167;stroke-linecap:round;stroke-linejoin:round;stroke-miterlimit:4;stroke-dasharray:none"
       d="m -5.2916612,11.377089 c -3e-7,0.29225 -0.2369163,0.529166 -0.5291668,0.529166 -0.2922505,0 -0.5291664,-0.236916 -0.5291667,-0.529166 -2e-7,-0.292251 0.2369158,-0.529167 0.5291667,-0.529167 0.2922509,0 0.529167,0.236916 0.5291668,0.529167 z"
       id="ellipse6765"
       inkscape:connector-curvature="0"
       sodipodi:nodetypes="ccccc" />
    <path
       transform="scale(-1,1)"
       style="opacity:1;fill:#a8c5f7;fill-opacity:1;stroke:none;stroke-width:0.529167;stroke-linecap:round;stroke-linejoin:round;stroke-miterlimit:4;stroke-dasharray:none"
       d="m -7.9375042,12.435423 c -3e-7,0.29225 -0.2369163,0.529166 -0.5291668,0.529166 -0.2922505,0 -0.5291664,-0.236916 -0.5291667,-0.529166 -2e-7,-0.292251 0.2369158,-0.529167 0.5291667,-0.529167 0.2922509,0 0.529167,0.236916 0.5291668,0.529167 z"
       id="ellipse6757"
       inkscape:connector-curvature="0"
       sodipodi:nodetypes="ccccc" />
    <path
       transform="scale(-1,1)"
       style="opacity:1;fill:#a8c5f7;fill-opacity:1;stroke:none;stroke-width:0.529167;stroke-linecap:round;stroke-linejoin:round;stroke-miterlimit:4;stroke-dasharray:none"
       d="m -0.79375142,13.758345 c -3.2e-7,0.29225 -0.23691628,0.529166 -0.52916678,0.529166 -0.2922505,0 -0.5291664,-0.236916 -0.5291667,-0.529166 -2e-7,-0.292251 0.2369158,-0.529167 0.5291667,-0.529167 0.2922509,0 0.52916701,0.236916 0.52916678,0.529167 z"
       id="ellipse6759"
       inkscape:connector-curvature="0"
       sodipodi:nodetypes="ccccc" />
    <path
       transform="scale(-1,1)"
       style="opacity:1;fill:#a8c5f7;fill-opacity:1;stroke:none;stroke-width:0.529167;stroke-linecap:round;stroke-linejoin:round;stroke-miterlimit:4;stroke-dasharray:none"
       d="m -15.08125,13.758329 c 0,0.29225 -0.236915,0.529167 -0.529166,0.529167 -0.292251,0 -0.529167,-0.236916 -0.529167,-0.529167 0,-0.29225 0.236916,-0.529166 0.529167,-0.529166 0.29225,0 0.529166,0.236916 0.529166,0.529166 z"
       id="ellipse6761"
       inkscape:connector-curvature="0"
       sodipodi:nodetypes="ccccc" />
    <path
       style="fill:#e2e7fa;fill-opacity:1;stroke:none;stroke-width:0.529167;stroke-linecap:round;stroke-linejoin:round;stroke-miterlimit:4;stroke-dasharray:none"
       d="M 8.46667,0.793747 C 6.21265,0.793695 4.26907,2.378004 3.81475,4.585763 l -0.0393,0.212908 c -0.16516,-0.03382 -0.29473,-0.03617 -0.4656,-0.03617 -1.38965,0 -2.51613,1.125361 -2.51613,2.513542 0,1.388189 1.12648,2.513541 2.51613,2.513541 h 10.38076 c 1.32218,-10e-6 2.44894,-1.125352 2.44894,-2.513541 0,-1.388181 -1.12647,-2.513542 -2.51612,-2.513542 -0.16821,0 -0.29722,-0.01056 -0.45992,0.02222 l -0.045,-0.198954 C 12.66419,2.378008 10.72062,0.793699 8.4666,0.793751 Z"
       id="path6742"
       inkscape:connector-curvature="0"
       sodipodi:nodetypes="ccccccccccccc" />
    <path
       style="fill:#c4d2f0;fill-opacity:1;stroke:none;stroke-width:0.529167;stroke-linecap:round;stroke-linejoin:round;stroke-miterlimit:4;stroke-dasharray:none"
       d="m 13.16354,4.784718 -0.045,-0.198955 C 12.66422,2.378004 10.72065,0.793695 8.46663,0.793747 7.87246,0.793733 7.30107,0.906405 6.77164,1.108973 7.11101,1.033373 7.45748,0.994217 7.80517,0.992184 c 2.31817,-3.6e-5 4.31703,1.629412 4.7842,3.900021 z"
       id="path6754"
       inkscape:connector-curvature="0"
       sodipodi:nodetypes="ccccccc" />
    <path
       style="fill:#c4d2f0;fill-opacity:1;stroke:none;stroke-width:0.529167;stroke-linecap:round;stroke-linejoin:round;stroke-miterlimit:4;stroke-dasharray:none"
       d="m 15.11691,5.25704 c 0.30852,0.417275 0.49351,0.93126 0.49351,1.489832 0,1.38819 -1.12677,2.513531 -2.44895,2.513542 H 2.78071 c -0.56024,0 -1.07584,-0.18525 -1.49397,-0.494544 0.45821,0.619997 1.19245,1.02371 2.02314,1.02371 h 10.38076 c 1.32218,-1e-5 2.44894,-1.125352 2.44894,-2.513541 0,-0.828682 -0.40347,-1.561118 -1.02267,-2.018999 z"
       id="path6749"
       inkscape:connector-curvature="0"
       sodipodi:nodetypes="ccccccccc" />
    <path
       style="fill:#f8f8f8;fill-opacity:1;stroke:none;stroke-width:2.00000119;stroke-linecap:round;stroke-linejoin:round;stroke-miterlimit:4;stroke-dasharray:none"
       d="M 32 3 C 23.480869 2.9998035 16.135084 8.9877451 14.417969 17.332031 L 14.292969 18.011719 C 14.365755 18.010076 14.436584 18 14.509766 18 C 15.155574 18 15.645304 18.008895 16.269531 18.136719 L 16.417969 17.332031 C 18.067248 9.3173925 24.913146 3.4917761 33 3.0429688 C 32.667382 3.024509 32.336555 2.9999922 32 3 z M 12.509766 18 C 7.257545 18 3 22.253332 3 27.5 C 3 32.746699 7.257545 37 12.509766 37 L 14.509766 37 C 9.257545 37 5 32.746699 5 27.5 C 5 22.562168 8.7715376 18.5075 13.59375 18.046875 C 13.248719 18.014966 12.905122 18 12.509766 18 z M 51.736328 18.011719 L 51.751953 18.083984 C 51.917866 18.050557 52.064012 18.050689 52.216797 18.037109 C 52.057709 18.025065 51.897508 18.015847 51.736328 18.011719 z "
       transform="scale(0.26458333)"
       id="path843" />
    <path
       style="color:#000000;font-style:normal;font-variant:normal;font-weight:normal;font-stretch:normal;font-size:medium;line-height:normal;font-family:sans-serif;font-variant-ligatures:normal;font-variant-position:normal;font-variant-caps:normal;font-variant-numeric:normal;font-variant-alternates:normal;font-feature-settings:normal;text-indent:0;text-align:start;text-decoration:none;text-decoration-line:none;text-decoration-style:solid;text-decoration-color:#000000;letter-spacing:normal;word-spacing:normal;text-transform:none;writing-mode:lr-tb;direction:ltr;text-orientation:mixed;dominant-baseline:auto;baseline-shift:baseline;text-anchor:start;white-space:normal;shape-padding:0;clip-rule:nonzero;display:inline;overflow:visible;visibility:visible;opacity:1;isolation:auto;mix-blend-mode:normal;color-interpolation:sRGB;color-interpolation-filters:linearRGB;solid-color:#000000;solid-opacity:1;vector-effect:none;fill:#66a0fe;fill-opacity:1;fill-rule:nonzero;stroke:none;stroke-width:3.77952766;stroke-linecap:round;stroke-linejoin:round;stroke-miterlimit:4;stroke-dasharray:none;stroke-dashoffset:0;stroke-opacity:1;color-rendering:auto;image-rendering:auto;shape-rendering:auto;text-rendering:auto;enable-background:accumulate"
       d="M 32,2 C 23.043162,2.0000189 15.310312,8.2883614 13.464844,17.044922 13.149253,17.014686 12.830862,17 12.511719,17 6.7196295,17 2,21.710381 2,27.498047 2,33.285789 6.7196295,38.001953 12.511719,38.001953 H 13 v 11 c 0,1.125317 -0.876675,2 -2.001953,2 C 9.9332678,51.003196 8.8740147,51 7.8105469,51 7.3928879,49.842261 6.2920365,49 4.9980469,49 3.3530452,49 2,50.351054 2,51.996094 2,53.641095 3.3530452,55 4.9980469,55 6.2896427,55 7.389168,54.156412 7.8085938,53 H 10.998047 C 13.19675,53 15,51.198702 15,49 V 38 h 6.001953 v 2.185547 c -1.158727,0.415408 -1.999962,1.517785 -2,2.8125 0,1.645001 1.351092,2.996094 2.996094,2.996094 1.645001,0 3.003944,-1.351093 3.003906,-2.996094 0,-1.292372 -0.842595,-2.393401 -2,-2.810547 V 38 h 7.994141 c 0.0029,2.062211 -0.006,4.13214 0.0039,6.191406 -1.155646,0.416853 -1.996094,1.51419 -1.996094,2.806641 3.8e-5,1.645001 1.351092,2.998047 2.996094,2.998047 1.645002,0 2.998047,-1.353046 2.998047,-2.998047 C 34.998084,45.705654 34.155625,44.610217 33,44.193359 32.9961,42.130985 32.996094,40.067176 32.996094,38 h 8.001953 v 2.189453 c -1.156233,0.417789 -2,1.517054 -2,2.808594 0,1.645001 1.360858,2.996094 3.005859,2.996094 1.645002,0 2.996094,-1.351093 2.996094,-2.996094 0,-1.294564 -0.841537,-2.396979 -2,-2.8125 V 38 h 6.001953 v 11 c 0,2.198702 1.801298,4 4,4 h 3.189453 c 0.419466,1.156412 1.520942,2 2.8125,2 C 60.648941,55 62,53.641095 62,51.996094 62,50.351092 60.648946,49 59.003906,49 c -1.293862,0 -2.396714,0.842333 -2.814453,2 -1.063468,6.82e-4 -2.122721,0.002 -3.1875,0.002 -1.125316,0 -2,-0.874683 -2,-2 v -11 h 0.744141 C 57.31073,38.001868 62,33.285751 62,27.498047 62,21.710381 57.28037,17 51.488281,17 51.168911,17 50.852624,17.01506 50.537109,17.04492 48.691528,8.2885105 40.956722,1.9999811 32,2 Z m 0,2.0019531 c 8.010309,0 14.905229,5.5904025 16.572266,13.4140629 -1.50327,0.433814 -2.904811,1.197138 -4.089844,2.255859 -0.411024,0.36737 -0.446161,0.998149 -0.08008,1.410156 0.368126,0.415899 1.004904,0.453226 1.417968,0.08203 1.560343,-1.394078 3.574224,-2.162109 5.667969,-2.162109 4.712315,0 8.511719,3.790431 8.511719,8.496094 0,4.705663 -3.824111,8.503868 -8.253906,8.503906 H 12.511719 c -4.7123537,0 -8.5097659,-3.798243 -8.5097659,-8.503906 0,-4.705663 3.7974122,-8.496094 8.5097659,-8.496094 2.093707,0 4.109618,0.76807 5.669922,2.162109 0.413063,0.371152 1.050031,0.333713 1.417968,-0.08203 0.366237,-0.412007 0.328807,-1.042862 -0.08203,-1.410156 -1.185487,-1.059137 -2.585895,-1.82212 -4.089844,-2.255859 C 17.094622,9.5922044 23.989575,4.0019531 32,4.0019531 Z m 2.435547,4.140625 c -0.552492,0.00189 -0.998286,0.4514149 -0.996094,1.0039063 0.0019,0.5495811 0.446475,0.9942036 0.996094,0.9960936 0.985209,0 1.935685,0.192782 2.806641,0.539063 1.162882,0.462576 2.193133,1.20585 2.996093,2.15625 0.796271,0.9425 1.367805,2.087224 1.63086,3.365234 0.11263,0.53983 0.641584,0.886886 1.18164,0.775391 0.539868,-0.11263 0.886887,-0.641585 0.775391,-1.181641 C 43.494707,14.18672 42.773613,12.735738 41.767578,11.544922 40.75304,10.344166 39.451007,9.4071853 37.980469,8.8222656 36.879345,8.3843318 35.67697,8.1425781 34.435547,8.1425781 Z m -12.4375,33.8613279 c 0.564133,0 1.003906,0.431962 1.003906,0.996094 0,0.564132 -0.439773,1.003906 -1.003906,1.003906 -0.564132,0 -0.996094,-0.439774 -0.996094,-1.003906 0,-0.564132 0.431962,-0.996094 0.996094,-0.996094 z m 20.005859,0 C 42.568039,42.003906 43,42.435868 43,43 c 0,0.564132 -0.431961,1.003906 -0.996094,1.003906 -0.564132,0 -1.005859,-0.439774 -1.005859,-1.003906 0,-0.564132 0.441727,-0.996094 1.005859,-0.996094 z M 32,45.996094 c 0.564133,0 0.996094,0.439774 0.996094,1.003906 0,0.564132 -0.431961,0.996094 -0.996094,0.996094 -0.564132,0 -1.003906,-0.431962 -1.003906,-0.996094 0,-0.564132 0.439774,-1.003906 1.003906,-1.003906 z m -4.517578,4.304687 c -0.309921,-0.01512 -0.610296,0.110239 -0.8125,0.345703 -0.360567,0.417941 -0.314124,1.049287 0.103516,1.410157 1.400729,1.209184 3.234864,1.941406 5.226562,1.941406 1.991698,0 3.825831,-0.732222 5.226562,-1.941406 0.417716,-0.360945 0.464083,-0.992216 0.103516,-1.410157 -0.360945,-0.417713 -0.992216,-0.464082 -1.410156,-0.103515 -1.052258,0.908334 -2.416766,1.455078 -3.919922,1.455078 -1.503156,0 -2.867702,-0.546744 -3.919922,-1.455078 -0.167055,-0.145134 -0.376818,-0.229337 -0.597656,-0.242188 z M 4.9980469,51.001953 c 0.5641323,0 1.0039062,0.431962 1.0039062,0.996094 0,0.564132 -0.4397739,1.003906 -1.0039062,1.003906 -0.5640945,0 -0.9961316,-0.439774 -0.9960938,-1.003906 0,-0.564132 0.4319993,-0.996094 0.9960938,-0.996094 z m 54.0058591,0 c 0.564133,0 0.996094,0.431962 0.996094,0.996094 0,0.564132 -0.431924,1.003906 -0.996094,1.003906 C 58.439812,53.001953 58,52.562179 58,51.998047 c 0,-0.564132 0.439812,-0.996094 1.003906,-0.996094 z m -35.146484,2.457031 c -0.374929,0.409059 -0.345188,1.045799 0.06641,1.417969 C 26.05491,56.818081 28.894248,58 32,58 c 3.105713,0 5.945085,-1.181919 8.076172,-3.123047 0.411515,-0.372283 0.44118,-1.00891 0.06641,-1.417969 -0.371527,-0.406639 -1.002081,-0.436191 -1.410156,-0.06641 -1.777849,1.619377 -4.134148,2.605469 -6.732422,2.605469 -2.598312,0 -4.95457,-0.986092 -6.732422,-2.605469 -0.204472,-0.186709 -0.476009,-0.279734 -0.751955,-0.25781 -0.252096,0.02268 -0.488202,0.136756 -0.658205,0.32422 z m -2.16211,2.503907 c -0.253606,0.0189 -0.491035,0.130075 -0.664062,0.316406 -0.375685,0.402104 -0.355332,1.03243 0.04492,1.410156 C 23.93463,60.361655 27.78235,62 32,62 c 4.217651,0 8.067287,-1.638345 10.925781,-4.310547 0.400214,-0.377575 0.420571,-1.008052 0.04492,-1.410156 -0.375685,-0.402331 -1.006049,-0.424691 -1.410156,-0.05078 C 39.05733,58.568609 35.701065,60 32,60 28.298935,60 24.944588,58.568572 22.441406,56.228516 22.239957,56.041051 21.969822,55.945127 21.695312,55.962891 Z"
       transform="scale(0.26458333)"
       id="path2915"
       inkscape:connector-curvature="0"
       sodipodi:nodetypes="ccccccccccccccccccccccccccccccccccccccccccccccccccccccccccccccccccccccccccccccccccccccccccccccccccccccccccccccccccccccccccccccccccccccc" />
  </g>
</svg>
